<mxfile host="app.diagrams.net" agent="Mozilla/5.0 (Windows NT 10.0; Win64; x64) AppleWebKit/537.36 (KHTML, like Gecko) Chrome/129.0.0.0 Safari/537.36" version="24.7.17">
  <diagram name="Page-1" id="tbacNWgAKnMSsIgLVVQu">
    <mxGraphModel dx="1050" dy="522" grid="1" gridSize="10" guides="1" tooltips="1" connect="1" arrows="1" fold="1" page="1" pageScale="1" pageWidth="850" pageHeight="1100" math="0" shadow="0">
      <root>
        <mxCell id="0" />
        <mxCell id="1" parent="0" />
        <mxCell id="L2Ju5P-15pwQoUM91RCY-1" value="" style="rounded=0;whiteSpace=wrap;html=1;rotation=-90;" vertex="1" parent="1">
          <mxGeometry x="267.73" y="-0.65" width="385.31" height="482.25" as="geometry" />
        </mxCell>
        <mxCell id="L2Ju5P-15pwQoUM91RCY-9" style="edgeStyle=orthogonalEdgeStyle;rounded=0;orthogonalLoop=1;jettySize=auto;html=1;" edge="1" parent="1" source="L2Ju5P-15pwQoUM91RCY-3" target="L2Ju5P-15pwQoUM91RCY-6">
          <mxGeometry relative="1" as="geometry" />
        </mxCell>
        <mxCell id="L2Ju5P-15pwQoUM91RCY-3" value="SF" style="text;html=1;align=center;verticalAlign=middle;resizable=0;points=[];autosize=1;strokeColor=none;fillColor=none;" vertex="1" parent="1">
          <mxGeometry x="140" y="100" width="40" height="30" as="geometry" />
        </mxCell>
        <mxCell id="L2Ju5P-15pwQoUM91RCY-10" style="edgeStyle=orthogonalEdgeStyle;rounded=0;orthogonalLoop=1;jettySize=auto;html=1;" edge="1" parent="1" source="L2Ju5P-15pwQoUM91RCY-4" target="L2Ju5P-15pwQoUM91RCY-7">
          <mxGeometry relative="1" as="geometry" />
        </mxCell>
        <mxCell id="L2Ju5P-15pwQoUM91RCY-4" value="SC" style="text;html=1;align=center;verticalAlign=middle;resizable=0;points=[];autosize=1;strokeColor=none;fillColor=none;" vertex="1" parent="1">
          <mxGeometry x="140" y="230" width="40" height="30" as="geometry" />
        </mxCell>
        <mxCell id="L2Ju5P-15pwQoUM91RCY-11" style="edgeStyle=orthogonalEdgeStyle;rounded=0;orthogonalLoop=1;jettySize=auto;html=1;entryX=0;entryY=0.5;entryDx=0;entryDy=0;" edge="1" parent="1" source="L2Ju5P-15pwQoUM91RCY-5" target="L2Ju5P-15pwQoUM91RCY-8">
          <mxGeometry relative="1" as="geometry" />
        </mxCell>
        <mxCell id="L2Ju5P-15pwQoUM91RCY-5" value="CM" style="text;html=1;align=center;verticalAlign=middle;resizable=0;points=[];autosize=1;strokeColor=none;fillColor=none;" vertex="1" parent="1">
          <mxGeometry x="140" y="350" width="40" height="30" as="geometry" />
        </mxCell>
        <mxCell id="L2Ju5P-15pwQoUM91RCY-17" style="edgeStyle=orthogonalEdgeStyle;rounded=0;orthogonalLoop=1;jettySize=auto;html=1;" edge="1" parent="1" source="L2Ju5P-15pwQoUM91RCY-6" target="L2Ju5P-15pwQoUM91RCY-16">
          <mxGeometry relative="1" as="geometry" />
        </mxCell>
        <mxCell id="L2Ju5P-15pwQoUM91RCY-18" value="&amp;lt;&amp;lt;included&amp;gt;&amp;gt;" style="edgeLabel;html=1;align=center;verticalAlign=middle;resizable=0;points=[];" vertex="1" connectable="0" parent="L2Ju5P-15pwQoUM91RCY-17">
          <mxGeometry x="-0.0423" y="1" relative="1" as="geometry">
            <mxPoint as="offset" />
          </mxGeometry>
        </mxCell>
        <mxCell id="L2Ju5P-15pwQoUM91RCY-6" value="Monitor for&lt;div&gt;spoiled food&lt;/div&gt;" style="ellipse;whiteSpace=wrap;html=1;" vertex="1" parent="1">
          <mxGeometry x="250" y="85" width="80" height="60" as="geometry" />
        </mxCell>
        <mxCell id="L2Ju5P-15pwQoUM91RCY-20" style="edgeStyle=orthogonalEdgeStyle;rounded=0;orthogonalLoop=1;jettySize=auto;html=1;entryX=0;entryY=0.5;entryDx=0;entryDy=0;" edge="1" parent="1" source="L2Ju5P-15pwQoUM91RCY-7" target="L2Ju5P-15pwQoUM91RCY-19">
          <mxGeometry relative="1" as="geometry" />
        </mxCell>
        <mxCell id="L2Ju5P-15pwQoUM91RCY-21" value="&amp;lt;&amp;lt;inlcuded&amp;gt;&amp;gt;" style="edgeLabel;html=1;align=center;verticalAlign=middle;resizable=0;points=[];" vertex="1" connectable="0" parent="L2Ju5P-15pwQoUM91RCY-20">
          <mxGeometry x="-0.0278" relative="1" as="geometry">
            <mxPoint as="offset" />
          </mxGeometry>
        </mxCell>
        <mxCell id="L2Ju5P-15pwQoUM91RCY-7" value="Monitor for&lt;div&gt;Liquid intake&lt;/div&gt;" style="ellipse;whiteSpace=wrap;html=1;" vertex="1" parent="1">
          <mxGeometry x="250" y="215" width="80" height="60" as="geometry" />
        </mxCell>
        <mxCell id="L2Ju5P-15pwQoUM91RCY-23" style="edgeStyle=orthogonalEdgeStyle;rounded=0;orthogonalLoop=1;jettySize=auto;html=1;strokeColor=default;curved=0;dashed=1;" edge="1" parent="1" source="L2Ju5P-15pwQoUM91RCY-8" target="L2Ju5P-15pwQoUM91RCY-22">
          <mxGeometry relative="1" as="geometry" />
        </mxCell>
        <mxCell id="L2Ju5P-15pwQoUM91RCY-24" value="&amp;lt;&amp;lt;extends&amp;gt;&amp;gt;" style="edgeLabel;html=1;align=center;verticalAlign=middle;resizable=0;points=[];" vertex="1" connectable="0" parent="L2Ju5P-15pwQoUM91RCY-23">
          <mxGeometry x="-0.0381" y="-1" relative="1" as="geometry">
            <mxPoint as="offset" />
          </mxGeometry>
        </mxCell>
        <mxCell id="L2Ju5P-15pwQoUM91RCY-8" value="Monitor Climate" style="ellipse;whiteSpace=wrap;html=1;" vertex="1" parent="1">
          <mxGeometry x="250" y="335" width="80" height="60" as="geometry" />
        </mxCell>
        <mxCell id="L2Ju5P-15pwQoUM91RCY-12" value="SHS" style="text;html=1;align=center;verticalAlign=middle;resizable=0;points=[];autosize=1;strokeColor=none;fillColor=none;" vertex="1" parent="1">
          <mxGeometry x="435.38" y="20" width="50" height="30" as="geometry" />
        </mxCell>
        <mxCell id="L2Ju5P-15pwQoUM91RCY-13" value="GP" style="text;html=1;align=center;verticalAlign=middle;resizable=0;points=[];autosize=1;strokeColor=none;fillColor=none;" vertex="1" parent="1">
          <mxGeometry x="765" y="175" width="40" height="30" as="geometry" />
        </mxCell>
        <mxCell id="L2Ju5P-15pwQoUM91RCY-37" style="edgeStyle=orthogonalEdgeStyle;rounded=0;orthogonalLoop=1;jettySize=auto;html=1;entryX=1;entryY=0.5;entryDx=0;entryDy=0;" edge="1" parent="1" source="L2Ju5P-15pwQoUM91RCY-14" target="L2Ju5P-15pwQoUM91RCY-31">
          <mxGeometry relative="1" as="geometry" />
        </mxCell>
        <mxCell id="L2Ju5P-15pwQoUM91RCY-14" value="Emergancy Services" style="text;html=1;align=center;verticalAlign=middle;resizable=0;points=[];autosize=1;strokeColor=none;fillColor=none;" vertex="1" parent="1">
          <mxGeometry x="720" y="285" width="130" height="30" as="geometry" />
        </mxCell>
        <mxCell id="L2Ju5P-15pwQoUM91RCY-29" style="edgeStyle=orthogonalEdgeStyle;rounded=0;orthogonalLoop=1;jettySize=auto;html=1;entryX=0;entryY=0.5;entryDx=0;entryDy=0;" edge="1" parent="1" source="L2Ju5P-15pwQoUM91RCY-16" target="L2Ju5P-15pwQoUM91RCY-27">
          <mxGeometry relative="1" as="geometry" />
        </mxCell>
        <mxCell id="L2Ju5P-15pwQoUM91RCY-30" value="&amp;lt;&amp;lt;inlcuded&amp;gt;&amp;gt;" style="edgeLabel;html=1;align=center;verticalAlign=middle;resizable=0;points=[];" vertex="1" connectable="0" parent="L2Ju5P-15pwQoUM91RCY-29">
          <mxGeometry x="-0.0605" y="-1" relative="1" as="geometry">
            <mxPoint as="offset" />
          </mxGeometry>
        </mxCell>
        <mxCell id="L2Ju5P-15pwQoUM91RCY-16" value="Report spoilage to SHS" style="ellipse;whiteSpace=wrap;html=1;" vertex="1" parent="1">
          <mxGeometry x="440" y="85" width="80" height="60" as="geometry" />
        </mxCell>
        <mxCell id="L2Ju5P-15pwQoUM91RCY-32" style="edgeStyle=orthogonalEdgeStyle;rounded=0;orthogonalLoop=1;jettySize=auto;html=1;entryX=0;entryY=0.5;entryDx=0;entryDy=0;dashed=1;" edge="1" parent="1" source="L2Ju5P-15pwQoUM91RCY-19" target="L2Ju5P-15pwQoUM91RCY-31">
          <mxGeometry relative="1" as="geometry" />
        </mxCell>
        <mxCell id="L2Ju5P-15pwQoUM91RCY-36" value="&amp;lt;&amp;lt;extends&amp;gt;&amp;gt;" style="edgeLabel;html=1;align=center;verticalAlign=middle;resizable=0;points=[];" vertex="1" connectable="0" parent="L2Ju5P-15pwQoUM91RCY-32">
          <mxGeometry x="0.0717" y="1" relative="1" as="geometry">
            <mxPoint as="offset" />
          </mxGeometry>
        </mxCell>
        <mxCell id="L2Ju5P-15pwQoUM91RCY-19" value="Report minimum liquid intake to SHS" style="ellipse;whiteSpace=wrap;html=1;" vertex="1" parent="1">
          <mxGeometry x="440" y="215" width="80" height="60" as="geometry" />
        </mxCell>
        <mxCell id="L2Ju5P-15pwQoUM91RCY-33" style="edgeStyle=orthogonalEdgeStyle;rounded=0;orthogonalLoop=1;jettySize=auto;html=1;entryX=0.5;entryY=1;entryDx=0;entryDy=0;dashed=1;" edge="1" parent="1" source="L2Ju5P-15pwQoUM91RCY-22" target="L2Ju5P-15pwQoUM91RCY-31">
          <mxGeometry relative="1" as="geometry" />
        </mxCell>
        <mxCell id="L2Ju5P-15pwQoUM91RCY-34" value="&amp;lt;&amp;lt;extends&amp;gt;&amp;gt;" style="edgeLabel;html=1;align=center;verticalAlign=middle;resizable=0;points=[];" vertex="1" connectable="0" parent="L2Ju5P-15pwQoUM91RCY-33">
          <mxGeometry x="-0.3946" y="-1" relative="1" as="geometry">
            <mxPoint as="offset" />
          </mxGeometry>
        </mxCell>
        <mxCell id="L2Ju5P-15pwQoUM91RCY-22" value="Report Climate change to SHS" style="ellipse;whiteSpace=wrap;html=1;" vertex="1" parent="1">
          <mxGeometry x="440" y="335" width="80" height="60" as="geometry" />
        </mxCell>
        <mxCell id="L2Ju5P-15pwQoUM91RCY-27" value="Notify GP" style="ellipse;whiteSpace=wrap;html=1;" vertex="1" parent="1">
          <mxGeometry x="580" y="85" width="80" height="60" as="geometry" />
        </mxCell>
        <mxCell id="L2Ju5P-15pwQoUM91RCY-28" style="edgeStyle=orthogonalEdgeStyle;rounded=0;orthogonalLoop=1;jettySize=auto;html=1;entryX=1.007;entryY=0.405;entryDx=0;entryDy=0;entryPerimeter=0;" edge="1" parent="1" source="L2Ju5P-15pwQoUM91RCY-13" target="L2Ju5P-15pwQoUM91RCY-27">
          <mxGeometry relative="1" as="geometry" />
        </mxCell>
        <mxCell id="L2Ju5P-15pwQoUM91RCY-31" value="Notify&amp;nbsp;&lt;div&gt;&lt;span style=&quot;text-wrap: nowrap;&quot;&gt;Emergancy&amp;nbsp;&lt;/span&gt;&lt;/div&gt;&lt;div&gt;&lt;span style=&quot;text-wrap: nowrap;&quot;&gt;Services&lt;/span&gt;&lt;/div&gt;" style="ellipse;whiteSpace=wrap;html=1;" vertex="1" parent="1">
          <mxGeometry x="580" y="242.75" width="80" height="60" as="geometry" />
        </mxCell>
      </root>
    </mxGraphModel>
  </diagram>
</mxfile>
